<svg width="512" height="768" viewBox="0 0 512 768" fill="none" xmlns="http://www.w3.org/2000/svg">
  <defs>
    <radialGradient id="roseCore" cx="0" cy="0" r="1" gradientUnits="userSpaceOnUse" gradientTransform="translate(258 197) rotate(90) scale(86 84)">
      <stop stop-color="#FFBDC4"/>
      <stop offset="0.18" stop-color="#F95367"/>
      <stop offset="0.6" stop-color="#D91933"/>
      <stop offset="1" stop-color="#700513"/>
    </radialGradient>
    <linearGradient id="petalA" x1="120" y1="92" x2="362" y2="320" gradientUnits="userSpaceOnUse">
      <stop stop-color="#FF7788"/>
      <stop offset="0.45" stop-color="#E01D39"/>
      <stop offset="1" stop-color="#6D0512"/>
    </linearGradient>
    <linearGradient id="petalB" x1="154" y1="115" x2="343" y2="298" gradientUnits="userSpaceOnUse">
      <stop stop-color="#FF9CAA"/>
      <stop offset="0.5" stop-color="#CF112B"/>
      <stop offset="1" stop-color="#5B0410"/>
    </linearGradient>
    <linearGradient id="petalC" x1="177" y1="126" x2="329" y2="273" gradientUnits="userSpaceOnUse">
      <stop stop-color="#FFB1BA"/>
      <stop offset="0.48" stop-color="#D41A34"/>
      <stop offset="1" stop-color="#620611"/>
    </linearGradient>
    <linearGradient id="stem" x1="312" y1="320" x2="304" y2="742" gradientUnits="userSpaceOnUse">
      <stop stop-color="#88D781"/>
      <stop offset="0.5" stop-color="#3B974D"/>
      <stop offset="1" stop-color="#205B33"/>
    </linearGradient>
    <linearGradient id="leafDark" x1="0" y1="0" x2="1" y2="1">
      <stop stop-color="#8BE070"/>
      <stop offset="0.45" stop-color="#329B3D"/>
      <stop offset="1" stop-color="#165928"/>
    </linearGradient>
    <linearGradient id="leafLight" x1="0" y1="0" x2="1" y2="1">
      <stop stop-color="#B9F297"/>
      <stop offset="0.46" stop-color="#58B151"/>
      <stop offset="1" stop-color="#1A6832"/>
    </linearGradient>
    <radialGradient id="water" cx="0" cy="0" r="1" gradientUnits="userSpaceOnUse" gradientTransform="translate(0.35 0.25) scale(1 1.2)">
      <stop stop-color="#FFFFFF" stop-opacity="0.95"/>
      <stop offset="0.35" stop-color="#D7F3FF" stop-opacity="0.84"/>
      <stop offset="0.75" stop-color="#7CD4FF" stop-opacity="0.42"/>
      <stop offset="1" stop-color="#53B4FF" stop-opacity="0.2"/>
    </radialGradient>
    <filter id="shadow" x="-20%" y="-20%" width="140%" height="150%">
      <feDropShadow dx="0" dy="24" stdDeviation="18" flood-color="#4C0B13" flood-opacity="0.22"/>
    </filter>
  </defs>

  <g filter="url(#shadow)">
    <path d="M160 307C104 292 66 250 68 201C70 151 108 117 158 115C184 78 225 58 272 68C322 54 381 75 410 120C454 131 483 171 480 217C476 266 436 303 377 311C349 349 311 373 258 378C207 381 174 355 160 307Z" fill="url(#petalA)"/>
    <path d="M167 272C129 253 104 224 107 189C110 152 142 127 183 126C204 96 235 82 271 86C307 79 345 90 368 115C407 124 432 151 432 185C432 219 410 247 374 263C357 294 325 315 284 320C237 326 194 311 167 272Z" fill="url(#petalB)"/>
    <path d="M193 257C169 232 162 201 177 173C193 145 225 126 260 127C291 120 321 130 339 154C361 176 366 206 350 232C340 263 311 282 277 287C242 295 214 284 193 257Z" fill="url(#petalC)"/>
    <path d="M212 238C199 213 205 182 227 166C242 151 262 145 281 148C305 145 325 157 336 177C346 196 344 220 331 239C318 258 298 270 276 272C251 278 226 265 212 238Z" fill="url(#roseCore)"/>
    <path d="M231 228C229 211 239 194 254 187C266 179 281 178 294 184C309 189 319 201 320 216C321 231 313 244 299 253C286 260 270 261 255 257C242 252 234 241 231 228Z" fill="#9A0A1B" opacity="0.72"/>

    <path d="M181 162C210 125 262 107 315 123" stroke="#FFD7DE" stroke-opacity="0.34" stroke-width="7" stroke-linecap="round"/>
    <path d="M151 208C201 183 312 184 364 215" stroke="#FFD7DE" stroke-opacity="0.22" stroke-width="6" stroke-linecap="round"/>
    <path d="M188 263C221 286 285 290 334 262" stroke="#FFD7DE" stroke-opacity="0.18" stroke-width="5" stroke-linecap="round"/>
    <path d="M239 147C271 168 283 212 267 247" stroke="#FFE1E6" stroke-opacity="0.26" stroke-width="5" stroke-linecap="round"/>
    <path d="M294 151C266 167 249 192 246 221" stroke="#FFE1E6" stroke-opacity="0.26" stroke-width="4" stroke-linecap="round"/>
  </g>

  <path d="M308 333C310 383 311 441 311 494C311 583 309 652 307 736" stroke="url(#stem)" stroke-width="13" stroke-linecap="round"/>
  <path d="M304 395C248 369 205 373 172 409C211 432 252 437 307 423" fill="url(#leafLight)"/>
  <path d="M312 476C359 445 401 446 444 479C402 507 364 514 310 499" fill="url(#leafDark)"/>
  <path d="M303 564C246 543 205 554 176 594C221 611 255 615 304 603" fill="url(#leafDark)"/>
  <path d="M310 651C355 626 394 629 429 659C389 680 354 684 308 673" fill="url(#leafLight)"/>

  <path d="M196 401C227 408 251 412 281 413" stroke="#D9FFD2" stroke-opacity="0.42" stroke-width="4" stroke-linecap="round"/>
  <path d="M335 482C360 487 383 490 410 490" stroke="#D9FFD2" stroke-opacity="0.42" stroke-width="4" stroke-linecap="round"/>
  <path d="M201 579C233 586 255 589 286 589" stroke="#D9FFD2" stroke-opacity="0.42" stroke-width="4" stroke-linecap="round"/>
  <path d="M332 661C360 664 382 666 404 666" stroke="#D9FFD2" stroke-opacity="0.42" stroke-width="4" stroke-linecap="round"/>

  <!-- water drops -->
  <g opacity="0.95">
    <ellipse cx="184" cy="149" rx="13" ry="18" fill="url(#water)"/>
    <ellipse cx="330" cy="169" rx="12" ry="17" fill="url(#water)"/>
    <ellipse cx="145" cy="230" rx="9" ry="13" fill="url(#water)"/>
    <ellipse cx="382" cy="229" rx="10" ry="14" fill="url(#water)"/>
    <ellipse cx="262" cy="97" rx="8" ry="11" fill="url(#water)"/>
    <ellipse cx="238" cy="280" rx="12" ry="16" fill="url(#water)"/>
    <ellipse cx="302" cy="304" rx="10" ry="14" fill="url(#water)"/>
    <ellipse cx="240" cy="419" rx="9" ry="13" fill="url(#water)"/>
    <ellipse cx="381" cy="466" rx="11" ry="15" fill="url(#water)"/>
    <ellipse cx="220" cy="571" rx="10" ry="14" fill="url(#water)"/>
    <ellipse cx="360" cy="640" rx="9" ry="13" fill="url(#water)"/>
  </g>
</svg>
